<?xml version="1.0" encoding="UTF-8"?>
<svg xmlns="http://www.w3.org/2000/svg" width="1500" height="900" viewBox="0 0 1500 900" role="img">
  <title>Face Growth</title>
  <desc>Composite plate from the verified individual double-ladder layouts.</desc>
  <defs><marker id="arrow" markerWidth="10" markerHeight="10" refX="8" refY="3" orient="auto"><path d="M0,0 L0,6 L9,3 z" fill="context-stroke"/></marker></defs>
  <rect x="0.000" y="0.000" width="1500.000" height="900.000" fill="#FFFFFF"/>
  <text x="750.000" y="55.000" font-family="Arial, Helvetica, sans-serif" font-size="32.000" fill="#172033" text-anchor="middle" font-weight="bold">Face growth in the double-ladder sequence</text>
  <line x1="125.000" y1="690.000" x2="1430.000" y2="690.000" stroke="#172033" stroke-width="2.500" stroke-linecap="round"/>
  <line x1="125.000" y1="135.000" x2="125.000" y2="690.000" stroke="#172033" stroke-width="2.500" stroke-linecap="round"/>
  <line x1="125.000" y1="690.000" x2="1430.000" y2="690.000" stroke="#CBD5E1" stroke-width="1.000" stroke-linecap="round" stroke-dasharray="3 7"/>
  <text x="107.000" y="696.000" font-family="Arial, Helvetica, sans-serif" font-size="17.000" fill="#64748B" text-anchor="end">0</text>
  <line x1="125.000" y1="574.375" x2="1430.000" y2="574.375" stroke="#CBD5E1" stroke-width="1.000" stroke-linecap="round" stroke-dasharray="3 7"/>
  <text x="107.000" y="580.375" font-family="Arial, Helvetica, sans-serif" font-size="17.000" fill="#64748B" text-anchor="end">5</text>
  <line x1="125.000" y1="458.750" x2="1430.000" y2="458.750" stroke="#CBD5E1" stroke-width="1.000" stroke-linecap="round" stroke-dasharray="3 7"/>
  <text x="107.000" y="464.750" font-family="Arial, Helvetica, sans-serif" font-size="17.000" fill="#64748B" text-anchor="end">10</text>
  <line x1="125.000" y1="343.125" x2="1430.000" y2="343.125" stroke="#CBD5E1" stroke-width="1.000" stroke-linecap="round" stroke-dasharray="3 7"/>
  <text x="107.000" y="349.125" font-family="Arial, Helvetica, sans-serif" font-size="17.000" fill="#64748B" text-anchor="end">15</text>
  <line x1="125.000" y1="227.500" x2="1430.000" y2="227.500" stroke="#CBD5E1" stroke-width="1.000" stroke-linecap="round" stroke-dasharray="3 7"/>
  <text x="107.000" y="233.500" font-family="Arial, Helvetica, sans-serif" font-size="17.000" fill="#64748B" text-anchor="end">20</text>
  <polyline points="125.000,551.250 255.500,551.250 386.000,551.250 516.500,505.000 647.000,458.750 777.500,412.500 908.000,366.250 1038.500,320.000 1169.000,273.750 1299.500,227.500 1430.000,181.250" fill="none" stroke="#2563EB" stroke-width="4.000" stroke-linejoin="round"/>
  <circle cx="125.000" cy="551.250" r="8.500" fill="#FFFFFF" stroke="#2563EB" stroke-width="3.000"/>
  <circle cx="255.500" cy="551.250" r="8.500" fill="#FFFFFF" stroke="#2563EB" stroke-width="3.000"/>
  <circle cx="386.000" cy="551.250" r="8.500" fill="#FFFFFF" stroke="#2563EB" stroke-width="3.000"/>
  <circle cx="516.500" cy="505.000" r="8.500" fill="#FFFFFF" stroke="#2563EB" stroke-width="3.000"/>
  <circle cx="647.000" cy="458.750" r="8.500" fill="#FFFFFF" stroke="#2563EB" stroke-width="3.000"/>
  <circle cx="777.500" cy="412.500" r="8.500" fill="#FFFFFF" stroke="#2563EB" stroke-width="3.000"/>
  <circle cx="908.000" cy="366.250" r="8.500" fill="#FFFFFF" stroke="#2563EB" stroke-width="3.000"/>
  <circle cx="1038.500" cy="320.000" r="8.500" fill="#FFFFFF" stroke="#2563EB" stroke-width="3.000"/>
  <circle cx="1169.000" cy="273.750" r="8.500" fill="#2563EB" stroke="#2563EB" stroke-width="3.000"/>
  <circle cx="1299.500" cy="227.500" r="8.500" fill="#2563EB" stroke="#2563EB" stroke-width="3.000"/>
  <circle cx="1430.000" cy="181.250" r="8.500" fill="#2563EB" stroke="#2563EB" stroke-width="3.000"/>
  <polyline points="125.000,597.500 255.500,551.250 386.000,551.250 516.500,505.000 647.000,505.000 777.500,458.750 908.000,458.750 1038.500,412.500 1169.000,412.500 1299.500,366.250 1430.000,366.250" fill="none" stroke="#D97706" stroke-width="4.000" stroke-linejoin="round"/>
  <circle cx="125.000" cy="597.500" r="8.500" fill="#FFFFFF" stroke="#D97706" stroke-width="3.000"/>
  <circle cx="255.500" cy="551.250" r="8.500" fill="#FFFFFF" stroke="#D97706" stroke-width="3.000"/>
  <circle cx="386.000" cy="551.250" r="8.500" fill="#FFFFFF" stroke="#D97706" stroke-width="3.000"/>
  <circle cx="516.500" cy="505.000" r="8.500" fill="#FFFFFF" stroke="#D97706" stroke-width="3.000"/>
  <circle cx="647.000" cy="505.000" r="8.500" fill="#FFFFFF" stroke="#D97706" stroke-width="3.000"/>
  <circle cx="777.500" cy="458.750" r="8.500" fill="#FFFFFF" stroke="#D97706" stroke-width="3.000"/>
  <circle cx="908.000" cy="458.750" r="8.500" fill="#FFFFFF" stroke="#D97706" stroke-width="3.000"/>
  <circle cx="1038.500" cy="412.500" r="8.500" fill="#FFFFFF" stroke="#D97706" stroke-width="3.000"/>
  <circle cx="1169.000" cy="412.500" r="8.500" fill="#D97706" stroke="#D97706" stroke-width="3.000"/>
  <circle cx="1299.500" cy="366.250" r="8.500" fill="#D97706" stroke="#D97706" stroke-width="3.000"/>
  <circle cx="1430.000" cy="366.250" r="8.500" fill="#D97706" stroke="#D97706" stroke-width="3.000"/>
  <polyline points="125.000,597.500 255.500,597.500 386.000,551.250 516.500,551.250 647.000,505.000 777.500,505.000 908.000,458.750 1038.500,458.750 1169.000,412.500 1299.500,412.500 1430.000,366.250" fill="none" stroke="#7C3AED" stroke-width="4.000" stroke-linejoin="round"/>
  <circle cx="125.000" cy="597.500" r="8.500" fill="#FFFFFF" stroke="#7C3AED" stroke-width="3.000"/>
  <circle cx="255.500" cy="597.500" r="8.500" fill="#FFFFFF" stroke="#7C3AED" stroke-width="3.000"/>
  <circle cx="386.000" cy="551.250" r="8.500" fill="#FFFFFF" stroke="#7C3AED" stroke-width="3.000"/>
  <circle cx="516.500" cy="551.250" r="8.500" fill="#FFFFFF" stroke="#7C3AED" stroke-width="3.000"/>
  <circle cx="647.000" cy="505.000" r="8.500" fill="#FFFFFF" stroke="#7C3AED" stroke-width="3.000"/>
  <circle cx="777.500" cy="505.000" r="8.500" fill="#FFFFFF" stroke="#7C3AED" stroke-width="3.000"/>
  <circle cx="908.000" cy="458.750" r="8.500" fill="#FFFFFF" stroke="#7C3AED" stroke-width="3.000"/>
  <circle cx="1038.500" cy="458.750" r="8.500" fill="#FFFFFF" stroke="#7C3AED" stroke-width="3.000"/>
  <circle cx="1169.000" cy="412.500" r="8.500" fill="#7C3AED" stroke="#7C3AED" stroke-width="3.000"/>
  <circle cx="1299.500" cy="412.500" r="8.500" fill="#7C3AED" stroke="#7C3AED" stroke-width="3.000"/>
  <circle cx="1430.000" cy="366.250" r="8.500" fill="#7C3AED" stroke="#7C3AED" stroke-width="3.000"/>
  <text x="125.000" y="721.000" font-family="Arial, Helvetica, sans-serif" font-size="17.000" fill="#172033" text-anchor="middle">8</text>
  <text x="125.000" y="747.000" font-family="Arial, Helvetica, sans-serif" font-size="15.000" fill="#64748B" text-anchor="middle">D(1,1)</text>
  <text x="255.500" y="721.000" font-family="Arial, Helvetica, sans-serif" font-size="17.000" fill="#172033" text-anchor="middle">12</text>
  <text x="255.500" y="747.000" font-family="Arial, Helvetica, sans-serif" font-size="15.000" fill="#64748B" text-anchor="middle">D(3,1)</text>
  <text x="386.000" y="721.000" font-family="Arial, Helvetica, sans-serif" font-size="17.000" fill="#172033" text-anchor="middle">16</text>
  <text x="386.000" y="747.000" font-family="Arial, Helvetica, sans-serif" font-size="15.000" fill="#64748B" text-anchor="middle">D(3,3)</text>
  <text x="516.500" y="721.000" font-family="Arial, Helvetica, sans-serif" font-size="17.000" fill="#172033" text-anchor="middle">20</text>
  <text x="516.500" y="747.000" font-family="Arial, Helvetica, sans-serif" font-size="15.000" fill="#64748B" text-anchor="middle">D(5,3)</text>
  <text x="647.000" y="721.000" font-family="Arial, Helvetica, sans-serif" font-size="17.000" fill="#172033" text-anchor="middle">24</text>
  <text x="647.000" y="747.000" font-family="Arial, Helvetica, sans-serif" font-size="15.000" fill="#64748B" text-anchor="middle">D(5,5)</text>
  <text x="777.500" y="721.000" font-family="Arial, Helvetica, sans-serif" font-size="17.000" fill="#172033" text-anchor="middle">28</text>
  <text x="777.500" y="747.000" font-family="Arial, Helvetica, sans-serif" font-size="15.000" fill="#64748B" text-anchor="middle">D(7,5)</text>
  <text x="908.000" y="721.000" font-family="Arial, Helvetica, sans-serif" font-size="17.000" fill="#172033" text-anchor="middle">32</text>
  <text x="908.000" y="747.000" font-family="Arial, Helvetica, sans-serif" font-size="15.000" fill="#64748B" text-anchor="middle">D(7,7)</text>
  <text x="1038.500" y="721.000" font-family="Arial, Helvetica, sans-serif" font-size="17.000" fill="#172033" text-anchor="middle">36</text>
  <text x="1038.500" y="747.000" font-family="Arial, Helvetica, sans-serif" font-size="15.000" fill="#64748B" text-anchor="middle">D(9,7)</text>
  <text x="1169.000" y="721.000" font-family="Arial, Helvetica, sans-serif" font-size="17.000" fill="#172033" text-anchor="middle">40</text>
  <text x="1169.000" y="747.000" font-family="Arial, Helvetica, sans-serif" font-size="15.000" fill="#64748B" text-anchor="middle">D(9,9)</text>
  <text x="1299.500" y="721.000" font-family="Arial, Helvetica, sans-serif" font-size="17.000" fill="#172033" text-anchor="middle">44</text>
  <text x="1299.500" y="747.000" font-family="Arial, Helvetica, sans-serif" font-size="15.000" fill="#64748B" text-anchor="middle">D(11,9)</text>
  <text x="1430.000" y="721.000" font-family="Arial, Helvetica, sans-serif" font-size="17.000" fill="#172033" text-anchor="middle">48</text>
  <text x="1430.000" y="747.000" font-family="Arial, Helvetica, sans-serif" font-size="15.000" fill="#64748B" text-anchor="middle">D(11,11)</text>
  <text x="777.500" y="790.000" font-family="Arial, Helvetica, sans-serif" font-size="20.000" fill="#172033" text-anchor="middle" font-weight="bold">order n</text>
  <line x1="260.000" y1="835.000" x2="315.000" y2="835.000" stroke="#2563EB" stroke-width="4.000" stroke-linecap="round"/>
  <text x="330.000" y="841.000" font-family="Arial, Helvetica, sans-serif" font-size="18.000" fill="#172033" text-anchor="start">quadrilateral faces</text>
  <line x1="590.000" y1="835.000" x2="645.000" y2="835.000" stroke="#D97706" stroke-width="4.000" stroke-linecap="round"/>
  <text x="660.000" y="841.000" font-family="Arial, Helvetica, sans-serif" font-size="18.000" fill="#172033" text-anchor="start">A-cap length</text>
  <line x1="920.000" y1="835.000" x2="975.000" y2="835.000" stroke="#7C3AED" stroke-width="4.000" stroke-linecap="round"/>
  <text x="990.000" y="841.000" font-family="Arial, Helvetica, sans-serif" font-size="18.000" fill="#172033" text-anchor="start">B-cap length</text>
  <text x="1080.000" y="875.000" font-family="Arial, Helvetica, sans-serif" font-size="17.000" fill="#64748B" text-anchor="start">open marker = certified census maximizer</text>
</svg>
